# xmcd
#
# Track frame offsets: 
#        180
#        20977
#        41462
#        66043
#        89596
#        108660
#        128847
#        150046
#        165575
#        181768
#        193066
#        205722
#        219865
#        237945
#        254694
#
# Disc length: 3624 seconds
#
# Revision: 0
# Processed by: cddbd v1.5.2PL0 Copyright (c) Steve Scherf et al.
# Submitted via: ExactAudioCopy v0.95b4
#
DISCID=c90e260f
DTITLE=Kingdom Come - Live and Unplugged
DYEAR=1996
DGENRE=Hard Rock
TTITLE0=Living Out Of Touch
TTITLE1=Blood On The Land
TTITLE2=I Don't Care
TTITLE3=What Love Can Be
TTITLE4=Always On The Run
TTITLE5=Do You Like It
TTITLE6=Thank You All
TTITLE7=Hope Is On Fire
TTITLE8=Friends
TTITLE9=And I Love Her
TTITLE10=You'll Never Know
TTITLE11=Rather Be On My Own
TTITLE12=Janine
TTITLE13=You're Not The Only
TTITLE14=You're Not The Only II
EXTD=
EXTT0=
EXTT1=
EXTT2=
EXTT3=
EXTT4=
EXTT5=
EXTT6=
EXTT7=
EXTT8=
EXTT9=
EXTT10=
EXTT11=
EXTT12=
EXTT13=
EXTT14=
PLAYORDER=
